<!DOCTYPE svg PUBLIC "-//W3C//DTD SVG 20010904//EN" "http://www.w3.org/TR/2001/REC-SVG-20010904/DTD/svg10.dtd">
<svg version="1.0" xmlns="http://www.w3.org/2000/svg" width="1280px" height="720px" viewBox="0 0 12800 7200" preserveAspectRatio="xMidYMid meet">
<g id="layer1" fill="#135c75" stroke="none">
 <path d="M6040 6564 c-109 -11 -386 -55 -462 -74 -242 -61 -457 -140 -658 -242 -206 -105 -290 -158 -348 -218 -189 -195 -347 -561 -409 -947 -22 -137 -24 -497 -4 -623 52 -329 198 -642 377 -812 44 -41 97 -60 131 -47 83 31 110 91 233 509 157 536 278 780 494 996 239 240 510 339 788 290 296 -53 564 -352 755 -841 63 -163 122 -351 148 -475 67 -318 96 -515 115 -770 39 -516 148 -859 289 -901 138 -41 240 190 282 637 8 77 12 261 11 459 -2 315 8 689 28 1025 62 1057 10 1485 -209 1700 -63 62 -74 68 -221 127 -85 33 -191 71 -235 83 -337 92 -529 121 -835 125 -124 2 -245 1 -270 -1z"/>
 <path d="M8510 5516 c-5 -13 -9 -197 -10 -408 -1 -815 -17 -1122 -90 -1713 -107 -877 -343 -1571 -642 -1883 -46 -48 -58 -66 -49 -75 8 -8 19 -7 44 7 34 20 629 382 732 446 266 165 408 252 421 257 16 6 117 209 159 319 216 566 271 1157 160 1701 -72 351 -225 714 -428 1018 -93 138 -263 355 -279 355 -5 0 -13 -11 -18 -24z"/>
 <path d="M5827 4519 c-20 -5 -55 -18 -77 -29 -136 -69 -246 -317 -358 -805 -132 -572 -219 -909 -335 -1287 -8 -29 -8 -41 1 -50 9 -9 24 -3 64 24 29 20 115 77 190 127 76 50 317 211 535 358 219 147 453 303 521 348 l123 80 -5 60 c-10 104 -98 478 -143 605 -112 319 -211 472 -357 549 -60 32 -92 36 -159 20z"/>
 </g>
<g id="layer2" fill="#1d93c6" stroke="none">
 <path d="M3688 5108 c-9 -13 -47 -84 -86 -158 -181 -344 -291 -716 -332 -1124 -18 -174 -8 -524 20 -701 86 -552 320 -1075 663 -1485 508 -608 1204 -983 1997 -1075 161 -19 479 -19 642 0 575 68 1108 287 1550 637 136 107 392 365 500 503 148 191 299 438 279 458 -17 17 -39 5 -486 -273 -334 -208 -613 -373 -627 -372 -9 0 -19 -6 -22 -14 -3 -8 -10 -14 -16 -14 -6 0 -16 -4 -23 -10 -67 -54 -195 -140 -211 -140 -7 0 -46 -12 -87 -26 -97 -33 -264 -38 -349 -10 -138 47 -251 162 -318 326 -38 93 -58 196 -72 370 -26 311 -86 711 -161 1061 -47 225 -52 239 -79 239 -11 0 -149 -87 -308 -193 -755 -509 -1088 -730 -1102 -734 -8 -2 -26 -19 -40 -38 -41 -55 -79 -75 -141 -75 -77 0 -142 41 -264 164 -274 275 -524 704 -676 1155 -147 436 -210 835 -208 1313 0 120 -2 222 -6 228 -10 16 -21 12 -37 -12z"/>
 </g>

</svg>